<?xml version="1.0" encoding="iso-8859-1"?>
<!-- Generator: Adobe Illustrator 18.0.0, SVG Export Plug-In . SVG Version: 6.00 Build 0)  -->
<!DOCTYPE svg PUBLIC "-//W3C//DTD SVG 1.1//EN" "http://www.w3.org/Graphics/SVG/1.1/DTD/svg11.dtd">
<svg version="1.1" id="Capa_1" xmlns="http://www.w3.org/2000/svg" xmlns:xlink="http://www.w3.org/1999/xlink" x="0px" y="0px"
	 viewBox="0 0 426.669 426.669" style="enable-background:new 0 0 426.669 426.669;" xml:space="preserve">
<g>
	<path style="fill:none;" d="M183.716,294.888l29.619,51.299l29.618-51.299c-9.691-1.117-19.587-1.695-29.617-1.695
		C203.305,293.192,193.408,293.771,183.716,294.888z"/>
	<path style="fill:none;" d="M213.335,269.192c44.493,0,80.745-44.022,81.206-98.201c0.004-0.349,31.562-55.979,31.562-55.979
		C323.576,97.798,307.277,24,214.091,24c-0.255,0-0.497,0.003-0.755,0.001h-0.001h-0.001c-0.252,0.004-0.506,0-0.755-0.001
		c-93.152,0-109.467,73.716-112.011,91.011c0,0,31.556,55.672,31.559,55.98C132.535,225.226,168.808,269.192,213.335,269.192z"/>
	<path style="fill:#73D0F4;" d="M340.277,330.095c-20.514-14.465-45.217-24.971-72.238-30.992c-0.227,0.592-0.487,1.176-0.814,1.742
		l-43.498,75.342c-2.144,3.713-6.105,6-10.392,6c-4.287,0-8.249-2.287-10.392-6l-43.5-75.342c-0.327-0.566-0.587-1.15-0.813-1.742
		c-27.021,6.023-51.725,16.527-72.238,30.992c-28.339,19.98-45.568,45.4-49.497,72.574h71.227V368.94c0-6.627,5.373-12,12-12
		c6.627,0,12,5.373,12,12v33.729h162.424V368.94c0-6.627,5.372-12,12-12s12,5.373,12,12v33.729h71.228
		C385.845,375.495,368.615,350.075,340.277,330.095z"/>
	<path style="fill:#3D6889;" d="M354.107,310.479c-24.238-17.09-53.522-29.242-85.406-35.762
		c28.26-20.551,47.626-56.328,49.66-97.461l30.559-53.82c1.184-2.084,1.716-4.475,1.529-6.863
		c-0.095-1.203-2.517-29.781-20.576-58.397C313.103,31.602,279.42,0,214.099,0c-0.252,0-0.51,0.001-0.764,0.001
		c-0.257,0-0.508-0.001-0.764-0.001c-65.313,0-99.004,31.603-115.774,58.177c-18.058,28.615-20.481,57.193-20.575,58.397
		c-0.188,2.392,0.346,4.785,1.532,6.87l30.547,53.714c2.009,41.176,21.384,76.994,49.668,97.562
		c-31.885,6.518-61.168,18.67-85.407,35.76c-39.034,27.523-60.531,64.525-60.531,104.19c0,6.627,5.372,12,12,12h378.606
		c6.628,0,12-5.373,12-12C414.638,375.005,393.141,338.003,354.107,310.479z M318.546,402.669V368.94c0-6.627-5.372-12-12-12
		s-12,5.373-12,12v33.729H132.122V368.94c0-6.627-5.373-12-12-12c-6.627,0-12,5.373-12,12v33.729H36.895
		c3.929-27.174,21.158-52.594,49.497-72.574c20.513-14.465,45.216-24.969,72.238-30.992c0.226,0.592,0.486,1.176,0.813,1.742
		l43.5,75.342c2.143,3.713,6.105,6,10.392,6c4.287,0,8.248-2.287,10.392-6l43.498-75.342c0.327-0.566,0.588-1.15,0.814-1.742
		c27.022,6.022,51.725,16.527,72.238,30.992c28.338,19.98,45.567,45.4,49.496,72.574H318.546z M213.335,346.187l-29.619-51.299
		c9.692-1.117,19.589-1.695,29.62-1.695c10.03,0,19.925,0.578,29.617,1.695L213.335,346.187z M132.126,170.991
		c-0.002-0.309-31.559-55.98-31.559-55.98C103.112,97.716,119.427,24,212.579,24c0.249,0.001,0.504,0.005,0.755,0.001h0.001h0.001
		c0.259,0.002,0.5-0.001,0.755-0.001c93.186,0,109.485,73.798,112.012,91.013c0,0-31.559,55.63-31.562,55.979
		c-0.461,54.18-36.713,98.201-81.206,98.201C168.808,269.192,132.535,225.226,132.126,170.991z"/>
</g>
<g>
</g>
<g>
</g>
<g>
</g>
<g>
</g>
<g>
</g>
<g>
</g>
<g>
</g>
<g>
</g>
<g>
</g>
<g>
</g>
<g>
</g>
<g>
</g>
<g>
</g>
<g>
</g>
<g>
</g>
</svg>
