<?xml version="1.0" standalone="no"?>
<!DOCTYPE svg PUBLIC "-//W3C//DTD SVG 20010904//EN"
 "http://www.w3.org/TR/2001/REC-SVG-20010904/DTD/svg10.dtd">
<svg version="1.0" xmlns="http://www.w3.org/2000/svg"
 width="262.000000pt" height="295.000000pt" viewBox="0 0 262.000000 295.000000"
 preserveAspectRatio="xMidYMid meet">
<g transform="translate(0.000000,295.000000) scale(0.100000,-0.100000)"
 fill="#fff" stroke="none">
<path d="M1454 2900 c-175 -46 -330 -170 -410 -327 -14 -29 -29 -53 -33 -53
-3 0 -28 7 -56 16 -60 18 -185 20 -246 4 -117 -31 -231 -122 -288 -230 -37
-69 -65 -189 -57 -241 6 -36 5 -37 -40 -49 -61 -17 -152 -77 -187 -123 -104
-137 -114 -319 -25 -460 38 -60 97 -108 174 -144 53 -25 73 -28 187 -31 l127
-4 0 -77 c0 -42 5 -94 11 -116 17 -60 64 -121 117 -152 44 -26 55 -28 185 -31
l138 -4 -3 -196 -3 -197 -57 -87 c-56 -86 -58 -88 -97 -88 -71 0 -132 -77
-115 -146 26 -107 149 -139 221 -60 38 41 44 93 17 149 -16 33 -16 34 29 104
83 130 77 88 77 518 l0 385 95 0 95 0 0 -472 0 -473 -29 -17 c-91 -51 -85
-189 9 -228 81 -34 180 27 180 110 0 53 -23 96 -60 115 l-30 16 0 474 0 475
95 0 95 0 0 -392 0 -393 59 -94 59 -95 -19 -24 c-44 -57 -29 -144 33 -182 62
-38 141 -19 178 43 50 81 -6 187 -98 187 -25 0 -35 10 -85 91 l-57 91 0 294 0
294 108 0 c67 0 128 6 158 15 62 18 124 70 149 124 18 41 18 41 74 41 201 1
391 143 451 339 72 232 -41 492 -257 588 l-62 28 -1 80 c0 170 -60 307 -189
435 -98 98 -170 140 -287 170 -99 26 -233 26 -330 0z m368 -83 c239 -92 394
-330 375 -577 l-6 -76 48 -13 c61 -15 161 -81 200 -130 115 -145 132 -322 46
-480 -33 -60 -114 -140 -173 -170 -52 -27 -145 -51 -194 -51 l-38 0 0 150 c0
147 1 151 23 159 62 24 94 109 63 168 -52 102 -194 96 -235 -11 -21 -54 0
-112 52 -145 l37 -24 0 -149 0 -148 -190 0 -190 0 0 453 0 452 29 17 c42 23
66 65 65 113 -2 76 -55 125 -135 125 -35 0 -48 -6 -80 -39 -33 -32 -39 -45
-39 -80 0 -54 22 -97 60 -116 l30 -16 0 -454 0 -455 -95 0 -95 0 0 48 c0 42 3
48 28 59 81 36 82 176 2 218 -61 31 -152 8 -181 -47 -31 -58 -5 -144 52 -174
25 -13 29 -20 29 -59 l0 -45 -95 0 -95 0 0 288 0 289 25 11 c58 27 82 119 46
178 -20 32 -74 64 -110 64 -40 0 -90 -28 -111 -62 -38 -63 -19 -138 45 -178
l35 -22 0 -284 0 -284 -190 0 -190 0 0 63 c1 59 2 63 33 82 18 11 41 36 51 56
50 92 -45 201 -151 175 -14 -4 -41 -22 -60 -41 -27 -27 -33 -41 -33 -74 0 -54
22 -97 60 -116 29 -15 30 -18 30 -81 l0 -66 -118 4 c-104 3 -126 7 -174 31
-65 32 -131 99 -161 165 -31 67 -30 198 2 263 49 103 140 172 246 187 l47 7 1
115 c2 104 5 121 30 173 35 70 105 143 172 179 101 54 251 56 354 5 57 -29 57
-29 89 50 66 164 209 291 382 338 88 24 267 15 352 -18z m-772 -1717 l0 -160
-102 0 c-119 0 -165 11 -208 47 -48 40 -63 78 -68 180 l-5 93 192 0 191 0 0
-160z m950 154 c0 -18 -47 -67 -80 -84 -33 -17 -59 -20 -160 -20 l-120 0 0 55
0 55 180 0 c99 0 180 -3 180 -6z"/>
</g>
</svg>
