<?xml version="1.0" standalone="no"?>
<!DOCTYPE svg PUBLIC "-//W3C//DTD SVG 20010904//EN"
 "http://www.w3.org/TR/2001/REC-SVG-20010904/DTD/svg10.dtd">
<svg version="1.0" xmlns="http://www.w3.org/2000/svg"
 width="645.000000pt" height="177.000000pt" viewBox="0 0 645.000000 177.000000"
 preserveAspectRatio="xMidYMid meet">
<metadata>
Created by potrace 1.10, written by Peter Selinger 2001-2011
</metadata>
<g transform="translate(0.000000,177.000000) scale(0.100000,-0.100000)"
fill="#007ee5" stroke="none">
<path d="M935 1528 c-22 -6 -47 -14 -55 -19 -8 -5 -24 -13 -35 -18 -24 -10
-98 -89 -107 -112 -5 -14 -17 -16 -71 -12 -54 5 -73 2 -111 -17 -62 -30 -112
-92 -120 -151 -7 -46 -39 -88 -78 -102 -9 -3 -29 -24 -43 -46 -31 -50 -35
-141 -7 -181 31 -45 56 -70 72 -70 8 0 24 -7 34 -15 11 -9 41 -15 68 -15 l48
0 0 -34 c0 -75 67 -137 144 -135 l31 1 -31 9 c-38 11 -102 71 -110 104 -12 49
-2 55 91 55 l85 0 0 -59 c0 -33 -4 -71 -10 -85 -6 -16 -6 -27 0 -31 6 -4 10
-44 10 -91 0 -97 -16 -129 -82 -167 -32 -17 -38 -26 -38 -53 0 -23 6 -37 19
-44 50 -26 97 6 89 61 -5 31 13 82 33 94 5 4 9 87 9 191 l0 184 45 0 45 0 0
-210 c0 -201 -1 -212 -22 -240 -18 -24 -20 -35 -12 -58 8 -22 16 -28 47 -30
32 -3 39 0 49 23 10 23 9 33 -10 66 -21 36 -22 50 -22 243 l0 206 45 0 45 0 0
-184 c0 -104 4 -187 9 -191 6 -3 17 -19 25 -36 12 -23 13 -36 4 -54 -25 -55
54 -102 95 -57 25 27 21 59 -10 79 -14 10 -41 34 -60 52 l-33 35 0 132 c0 103
3 134 15 144 8 6 19 9 25 5 22 -13 112 19 133 47 15 20 29 28 52 28 17 0 39 6
50 14 11 7 32 16 47 20 35 8 89 78 112 142 16 48 16 55 2 89 -9 21 -16 45 -16
55 0 21 -74 100 -94 100 -17 0 -46 49 -39 67 2 6 -1 14 -6 18 -6 3 -11 23 -11
44 0 22 -6 44 -15 51 -8 7 -15 18 -15 25 0 8 -27 38 -60 68 -52 46 -69 56
-113 62 -86 12 -100 12 -142 3z m186 -54 c8 -8 20 -14 24 -14 14 0 75 -62 75
-76 0 -6 6 -17 14 -23 15 -13 31 -91 28 -132 -2 -18 4 -28 20 -36 39 -18 118
-94 118 -113 0 -9 7 -23 15 -30 19 -16 19 -69 0 -94 -8 -11 -15 -27 -15 -36 0
-36 -131 -129 -164 -117 -23 9 -23 142 -1 151 24 9 20 73 -6 86 -30 17 -62 8
-78 -21 -14 -25 -13 -29 12 -62 20 -27 27 -47 27 -81 0 -66 -16 -77 -104 -74
l-71 3 -3 202 c-2 192 -1 204 18 223 28 28 25 64 -6 89 -31 24 -58 15 -76 -25
-10 -20 -8 -29 10 -54 22 -29 22 -37 20 -232 l-3 -203 -37 -3 c-30 -3 -38 1
-43 18 -5 15 -1 28 14 41 22 21 24 30 15 67 -5 18 -13 22 -45 22 -66 0 -82
-49 -32 -99 8 -7 13 -21 11 -30 -4 -21 -67 -28 -79 -9 -5 7 -9 64 -9 126 0 99
3 117 20 139 27 35 25 67 -6 92 -21 17 -30 19 -48 9 -42 -22 -48 -60 -16 -101
19 -23 20 -38 18 -149 l-3 -123 -60 -3 c-107 -6 -133 15 -90 72 14 18 25 39
25 46 0 19 -40 60 -58 60 -43 0 -70 -73 -37 -100 8 -7 15 -28 15 -46 0 -34 0
-34 -48 -34 -54 0 -113 34 -145 83 -22 33 -23 120 -2 137 8 7 15 19 15 26 0
15 52 46 90 54 23 5 25 10 28 70 3 57 7 69 35 98 63 66 158 93 198 56 23 -20
53 -5 67 33 19 53 95 118 157 134 44 12 177 0 196 -17z m39 -717 c0 -13 -73
-37 -114 -37 -22 0 -36 16 -36 41 0 5 34 9 75 9 55 0 75 -4 75 -13z"/>
<path d="M1675 1208 c-3 -7 -4 -162 -3 -343 l3 -330 180 0 c194 0 232 8 301
60 97 74 140 278 89 423 -32 92 -76 140 -160 178 -53 24 -402 34 -410 12z
m376 -124 c77 -39 99 -86 99 -209 0 -113 -18 -159 -77 -200 -35 -23 -46 -25
-160 -25 l-123 0 0 225 0 225 115 0 c85 0 124 -4 146 -16z"/>
<path d="M5425 1208 c-3 -7 -4 -162 -3 -343 l3 -330 55 0 55 0 3 172 2 173 36
35 c30 30 41 35 83 35 37 0 52 -5 69 -23 20 -21 22 -34 24 -207 l3 -185 55 0
55 0 3 168 c3 192 -5 236 -52 283 -66 66 -157 67 -231 3 -25 -22 -36 -27 -40
-17 -3 7 -6 65 -7 128 l-3 115 -53 3 c-36 2 -54 -1 -57 -10z"/>
<path d="M4092 1163 c-46 -40 -52 -50 -52 -84 0 -34 -3 -38 -27 -41 -25 -3
-28 -7 -28 -43 0 -36 3 -40 27 -43 l27 -3 3 -169 c3 -153 5 -171 24 -197 32
-43 69 -57 123 -47 42 8 46 12 49 41 3 28 0 33 -25 38 -15 4 -34 8 -40 11 -10
2 -13 44 -13 163 l0 160 43 3 c42 3 42 3 42 43 0 40 0 40 -42 43 l-43 3 0 72
c0 40 -4 77 -8 84 -5 8 -24 -2 -60 -34z"/>
<path d="M2530 1034 c-104 -40 -149 -81 -180 -165 -64 -170 54 -332 242 -333
40 0 73 5 80 12 7 7 20 12 29 12 24 0 96 73 115 117 38 88 14 220 -52 287 -51
51 -182 90 -234 70z m128 -105 c49 -38 62 -69 62 -144 0 -75 -13 -106 -62
-144 -36 -29 -110 -29 -146 0 -49 38 -62 69 -62 144 0 75 12 104 60 144 35 28
112 29 148 0z"/>
<path d="M3060 1020 c-71 -26 -115 -71 -141 -145 -25 -71 -22 -134 10 -208 22
-51 75 -107 101 -107 9 0 22 -6 29 -13 17 -17 147 -16 191 2 47 20 80 46 102
82 25 40 24 42 -22 57 -47 14 -70 15 -70 3 0 -5 -13 -23 -29 -40 -26 -27 -35
-31 -83 -31 -90 1 -128 50 -128 167 0 115 37 162 128 163 48 0 57 -4 83 -31
16 -17 29 -35 29 -40 0 -12 23 -11 70 3 45 15 47 18 23 56 -25 39 -60 65 -112
84 -60 22 -114 22 -181 -2z"/>
<path d="M3600 1031 c-77 -25 -130 -83 -130 -141 0 -28 23 -70 52 -96 22 -21
44 -30 183 -72 48 -15 61 -23 63 -41 6 -41 -24 -61 -90 -61 -61 0 -87 15 -115
64 -9 17 -14 18 -62 5 -28 -7 -51 -16 -51 -21 0 -15 37 -68 61 -86 33 -27 112
-52 160 -52 98 0 201 65 215 134 14 78 -47 136 -176 166 -54 12 -104 32 -112
44 -4 6 -8 21 -8 33 0 48 96 61 136 18 27 -29 39 -30 88 -10 41 18 41 17 19
51 -34 52 -163 88 -233 65z"/>
<path d="M4460 1024 c-45 -16 -110 -68 -110 -88 0 -11 45 -36 65 -36 6 0 22
11 35 25 20 21 32 25 84 25 70 -1 106 -22 106 -64 0 -20 -8 -29 -36 -41 -20
-8 -48 -15 -62 -15 -41 0 -144 -32 -174 -53 -83 -61 -67 -178 30 -224 51 -25
135 -22 191 5 57 28 69 28 81 -3 8 -22 16 -25 54 -25 47 0 65 12 48 33 -6 7
-12 92 -14 193 -3 178 -3 181 -30 216 -47 61 -170 85 -268 52z m180 -297 c0
-46 -10 -64 -50 -91 -34 -22 -109 -21 -137 3 -27 22 -30 63 -7 82 19 15 124
45 167 48 25 1 27 -1 27 -42z"/>
<path d="M5010 1031 c-77 -25 -130 -83 -130 -141 0 -28 23 -70 52 -96 22 -21
44 -30 183 -72 48 -15 61 -23 63 -41 6 -41 -24 -61 -91 -61 -53 0 -62 3 -88
31 -16 17 -29 35 -29 40 0 5 -7 9 -15 9 -24 0 -95 -24 -95 -32 0 -15 37 -68
61 -86 33 -27 112 -52 160 -52 98 0 201 65 215 134 14 78 -47 136 -176 166
-54 12 -104 32 -112 44 -4 6 -8 21 -8 33 0 48 96 61 136 18 13 -14 28 -25 34
-25 25 0 90 26 90 36 0 17 -44 60 -80 79 -38 20 -133 29 -170 16z"/>
</g>
</svg>
