<svg xmlns="http://www.w3.org/2000/svg" viewBox="0 0 56 56"><path d="M36.98 0H7.96C7.16 0 6.5.66 6.5 1.93V55c0 .34.66 1 1.46 1h40.08c.8 0 1.46-.66 1.46-1V12.98c0-.7-.1-.92-.26-1.1L37.6.28C37.45.1 37.23 0 37 0z" fill="#E9E9E0"/><path fill="#D9D7CA" d="M37.5.15V12h11.85"/><path d="M48.04 56H7.96c-.8 0-1.46-.66-1.46-1.46V39h43v15.54c0 .8-.66 1.46-1.46 1.46z" fill="#0096E6"/><path d="M23.58 51.98c-.37.36-.8.63-1.27.82s-.97.27-1.5.27c-.6 0-1.17-.1-1.67-.33s-.95-.54-1.33-.97-.68-.97-.9-1.6c-.2-.66-.32-1.4-.32-2.26s.1-1.57.32-2.2c.22-.65.5-1.2.9-1.6s.8-.77 1.32-1 1.07-.33 1.66-.33c.54 0 1.06.1 1.53.27s.9.46 1.3.82l-1.15 1.02c-.22-.27-.48-.46-.75-.58s-.58-.2-.88-.2c-.34 0-.66.08-.97.2s-.58.35-.82.65-.43.7-.56 1.2-.2 1.06-.22 1.76c0 .7.08 1.3.2 1.77s.32.88.56 1.2.5.5.8.66.6.2.95.2.63-.05.92-.17.55-.3.8-.57l1.12 1zm8.05-1.74c0 .36-.07.72-.22 1.06s-.34.64-.62.9-.6.47-1 .62-.87.23-1.38.23c-.23 0-.45 0-.68-.03s-.47-.06-.7-.12-.47-.13-.7-.22-.38-.2-.54-.35l.3-1.18c.12.08.28.15.47.22l.6.2s.43.1.64.13.4.06.57.06c.55 0 .98-.13 1.28-.4s.44-.64.44-1.15c0-.3-.1-.55-.33-.77s-.47-.42-.78-.6-.67-.35-1.03-.53-.7-.4-1.02-.64-.6-.53-.8-.85-.3-.72-.3-1.2c0-.46.07-.86.23-1.2s.38-.64.66-.88.6-.42.97-.55.77-.2 1.18-.2c.42 0 .84.05 1.27.13s.77.2 1.04.37c-.06.12-.1.25-.2.4l-.2.4c-.06.1-.12.2-.16.3s-.08.12-.08.13l-.2-.1s-.16-.1-.28-.14-.3-.08-.52-.1-.48 0-.8.02c-.2 0-.36.07-.53.15s-.3.2-.43.33-.23.27-.3.43-.1.3-.1.45c0 .37.1.66.3.88s.47.42.78.6.65.33 1 .48.7.37 1.03.6.6.5.8.85.3.78.3 1.32zm7.4 0c0 .36-.06.72-.2 1.06s-.38.64-.65.9-.6.47-1 .62-.87.23-1.38.23c-.22 0-.44 0-.67-.03s-.47-.06-.7-.12-.47-.13-.7-.22-.38-.2-.54-.35l.27-1.18c.12.08.3.15.48.22l.6.2s.43.1.64.13.4.06.6.06c.53 0 .96-.13 1.25-.4s.45-.64.45-1.15c0-.3-.1-.55-.3-.77s-.48-.42-.8-.6l-1-.53s-.72-.4-1.04-.64-.58-.53-.8-.85-.3-.72-.3-1.2c0-.46.08-.86.24-1.2s.4-.64.67-.88.6-.42.97-.55.76-.2 1.17-.2c.44 0 .86.05 1.3.13s.76.2 1.03.37l-.2.4-.2.4-.16.3-.1.13-.17-.1s-.18-.1-.3-.14-.3-.08-.5-.1-.5 0-.82.02c-.18 0-.35.07-.52.15s-.3.2-.44.33-.22.27-.3.43-.1.3-.1.45c0 .37.1.66.3.88s.48.42.8.6.63.33 1 .48.7.37 1.02.6.57.5.78.85.32.78.32 1.32z" fill="#FFF"/><path d="M19.5 19v-4c0-.55.45-1 1-1s1-.45 1-1-.45-1-1-1c-1.65 0-3 1.35-3 3v4c0 1.1-.9 2-2 2-.55 0-1 .45-1 1s.45 1 1 1c1.1 0 2 .9 2 2v4c0 1.65 1.35 3 3 3 .55 0 1-.45 1-1s-.45-1-1-1-1-.45-1-1v-4c0-1.2-.54-2.27-1.38-3 .84-.73 1.38-1.8 1.38-3zm20 2c-1.1 0-2-.9-2-2v-4c0-1.65-1.35-3-3-3-.55 0-1 .45-1 1s.45 1 1 1 1 .45 1 1v4c0 1.2.54 2.27 1.38 3-.84.73-1.38 1.8-1.38 3v4c0 .55-.45 1-1 1s-1 .45-1 1 .45 1 1 1c1.65 0 3-1.35 3-3v-4c0-1.1.9-2 2-2 .55 0 1-.45 1-1s-.45-1-1-1z" fill="#0096E6"/></svg>