<svg xmlns="http://www.w3.org/2000/svg" viewBox="0 0 56 56"><path d="M36.98 0H7.96C7.16 0 6.5.66 6.5 1.93V55c0 .34.66 1 1.46 1h40.08c.8 0 1.46-.66 1.46-1V12.98c0-.7-.1-.92-.26-1.1L37.6.27C37.45.1 37.23 0 37 0z" fill="#E9E9E0"/><path fill="#D9D7CA" d="M37.5.15V12h11.85"/><path d="M48.04 56H7.96c-.8 0-1.46-.66-1.46-1.46V39h43v15.54c0 .8-.66 1.46-1.46 1.46z" fill="#F36FA0"/><g fill="#FFF"><path d="M21.58 51.98c-.37.36-.8.63-1.27.82-.47.18-.98.27-1.52.27-.6 0-1.16-.1-1.66-.33s-.95-.54-1.33-.97c-.4-.43-.68-.97-.9-1.6-.2-.66-.32-1.4-.32-2.26s.1-1.58.32-2.22c.22-.64.5-1.18.9-1.6.37-.44.8-.76 1.32-.98.5-.23 1.07-.34 1.66-.34.54 0 1.05.1 1.53.27.48.2.9.46 1.28.82l-1.14 1.02c-.22-.27-.48-.46-.75-.58-.3-.13-.58-.2-.88-.2-.34 0-.66.08-.97.2-.3.13-.58.35-.82.65-.24.3-.43.7-.56 1.2s-.2 1.06-.22 1.76c0 .7.08 1.28.2 1.76.14.5.32.88.56 1.2s.5.5.8.66c.3.14.6.2.94.2s.63-.05.92-.17.55-.3.8-.57l1.12 1zM29.63 50.24c0 .36-.07.72-.22 1.06s-.35.64-.63.9-.6.47-1 .62c-.4.16-.87.23-1.38.23-.23 0-.45 0-.68-.03s-.47-.06-.7-.12c-.25-.05-.47-.13-.7-.22-.2-.1-.4-.2-.54-.35l.3-1.18c.1.08.28.15.47.22l.6.2c.22.05.43.1.64.13.2.04.4.06.58.06.55 0 .98-.13 1.28-.4.3-.25.44-.64.44-1.15 0-.3-.1-.56-.32-.78-.2-.22-.47-.42-.78-.6s-.66-.35-1.02-.53c-.36-.2-.7-.4-1.02-.64-.32-.24-.6-.53-.8-.85-.2-.32-.3-.73-.3-1.22 0-.45.07-.85.23-1.2s.38-.63.66-.87c.27-.24.6-.42.97-.55s.76-.2 1.17-.2c.42 0 .84.05 1.27.13.43.07.77.2 1.04.37-.05.12-.1.25-.18.4-.08.13-.15.27-.2.4-.07.1-.13.2-.17.3l-.08.13-.2-.1s-.16-.1-.28-.14c-.14-.05-.3-.08-.52-.1-.2-.02-.48 0-.8.02-.2 0-.36.07-.53.15s-.3.2-.43.33-.23.27-.3.43c-.08.16-.1.32-.1.46 0 .37.1.66.3.88.2.23.47.42.78.6.3.16.65.33 1 .48.37.16.7.36 1.03.6s.58.5.8.84c.2.34.3.78.3 1.32zM34.03 53.05L30.9 42.92h1.88l2.33 8.7 2.5-8.7h1.85l-3.28 10.13h-2.14z"/></g><path d="M23.5 16v-4h-12v22h33V16h-21zm-10-2h8v2h-8v-2zm0 4h8v2h-8v-2zm0 4h8v2h-8v-2zm0 4h8v2h-8v-2zm8 6h-8v-2h8v2zm21 0h-19v-2h19v2zm0-4h-19v-2h19v2zm0-4h-19v-2h19v2zm-19-4v-2h19v2h-19z" fill="#C8BDB8"/></svg>