<svg xmlns="http://www.w3.org/2000/svg" viewBox="0 0 56 56"><path d="M36.98 0H7.96C7.16 0 6.5.66 6.5 1.93V55c0 .34.66 1 1.46 1h40.08c.8 0 1.46-.66 1.46-1V12.98c0-.7-.1-.92-.26-1.1L37.6.27C37.45.1 37.23 0 37 0z" fill="#E9E9E0"/><path fill="#D9D7CA" d="M37.5.15V12h11.85"/><path d="M48.04 56H7.96c-.8 0-1.46-.66-1.46-1.46V39h43v15.54c0 .8-.66 1.46-1.46 1.46z" fill="#E96360"/><g fill="#FFF"><path d="M22.95 47.68c0 .83-.1 1.54-.27 2.13s-.4 1.1-.68 1.5-.58.7-.92.92-.67.4-1 .5c-.3.13-.6.2-.87.23-.25.03-.45.05-.57.05H14.8V42.92h3.05c.85 0 1.6.14 2.23.4s1.18.63 1.6 1.08.74.95.95 1.52c.2.57.32 1.16.32 1.76zm-4.87 4.12c1.1 0 1.9-.36 2.4-1.07s.74-1.74.74-3.1c0-.4-.05-.82-.15-1.23-.1-.4-.3-.78-.58-1.12s-.68-.6-1.18-.8-1.13-.3-1.9-.3h-.97v7.62h1.63zM30.1 47.7c.2.02.43.1.67.2.24.1.46.27.66.47s.38.44.5.73.22.6.22 1c0 .44-.07.84-.2 1.16s-.3.6-.52.82-.43.38-.67.5c-.24.13-.47.22-.7.28-.22.07-.42.1-.6.12l-.33.02h-3.8V42.92h2.9c.44 0 .85.05 1.25.15.4.1.76.26 1.07.48.3.22.55.5.74.86.17.36.26.77.26 1.26 0 .28-.05.54-.14.77-.1.23-.2.44-.34.6s-.3.32-.47.44-.34.2-.5.23zm-1.9-.47h.6c.22-.02.42-.07.6-.16.18-.1.33-.25.44-.47.12-.22.17-.53.17-.94 0-.17 0-.34-.05-.52-.05-.17-.14-.34-.28-.48s-.33-.27-.58-.35c-.27-.1-.6-.13-1.03-.13h-1.1v3.06h1.23zm.83 4.57c.48 0 .86-.16 1.14-.47s.4-.72.4-1.24c0-.5-.14-.92-.42-1.26-.28-.33-.7-.5-1.24-.5H27v3.46h2.05zM36.17 44.17v3.17h4.2v1.12h-4.2V53H34.5V42.92h6.3v1.25h-4.63z"/></g><path d="M24.5 16v-4h-12v22h33V16h-21zm-10-2h8v2h-8v-2zm0 4h8v2h-8v-2zm0 4h8v2h-8v-2zm0 4h8v2h-8v-2zm8 6h-8v-2h8v2zm21 0h-19v-2h19v2zm0-4h-19v-2h19v2zm0-4h-19v-2h19v2zm-19-4v-2h19v2h-19z" fill="#C8BDB8"/></svg>