<svg xmlns="http://www.w3.org/2000/svg" viewBox="0 0 56 56"><path d="M36.98 0H7.96C7.16 0 6.5.66 6.5 1.93V55c0 .34.66 1 1.46 1h40.08c.8 0 1.46-.66 1.46-1V12.98c0-.7-.1-.92-.26-1.1L37.6.28C37.45.1 37.23 0 37 0z" fill="#E9E9E0"/><path fill="#D9D7CA" d="M37.5.15V12h11.85"/><path d="M18.5 13h-6c-.55 0-1-.45-1-1s.45-1 1-1h6c.55 0 1 .45 1 1s-.45 1-1 1zm3 5h-9c-.55 0-1-.45-1-1s.45-1 1-1h9c.55 0 1 .45 1 1s-.45 1-1 1zm4 0c-.26 0-.52-.1-.7-.3-.2-.18-.3-.44-.3-.7 0-.26.1-.52.3-.7.36-.38 1.04-.38 1.4 0 .2.18.3.44.3.7 0 .26-.1.52-.3.7-.18.2-.44.3-.7.3zm12 0h-8c-.55 0-1-.45-1-1s.45-1 1-1h8c.55 0 1 .45 1 1s-.45 1-1 1zm-25 15c-.26 0-.52-.1-.7-.3-.2-.18-.3-.44-.3-.7 0-.26.1-.52.3-.7.36-.38 1.04-.38 1.4 0 .2.18.3.43.3.7 0 .26-.1.52-.3.7-.18.2-.44.3-.7.3zm12 0h-8c-.55 0-1-.45-1-1s.45-1 1-1h8c.55 0 1 .45 1 1s-.45 1-1 1zm19-15h-2c-.55 0-1-.45-1-1s.45-1 1-1h2c.55 0 1 .45 1 1s-.45 1-1 1zm-9 5h-22c-.55 0-1-.45-1-1s.45-1 1-1h22c.55 0 1 .45 1 1s-.45 1-1 1zm9 0h-6c-.55 0-1-.45-1-1s.45-1 1-1h6c.55 0 1 .45 1 1s-.45 1-1 1zm-27 5h-4c-.55 0-1-.45-1-1s.45-1 1-1h4c.55 0 1 .45 1 1s-.45 1-1 1zm14 0h-10c-.55 0-1-.45-1-1s.45-1 1-1h10c.55 0 1 .45 1 1s-.45 1-1 1zm13 0h-9c-.55 0-1-.45-1-1s.45-1 1-1h9c.55 0 1 .45 1 1s-.45 1-1 1z" fill="#8697CB"/><path d="M48.04 56H7.96c-.8 0-1.46-.66-1.46-1.46V39h43v15.54c0 .8-.66 1.46-1.46 1.46z" fill="#0096E6"/><path d="M23.5 47.68c0 .83-.1 1.54-.27 2.13s-.4 1.1-.67 1.5-.58.7-.93.93-.67.4-1 .5c-.3.13-.6.2-.86.23-.27.03-.46.05-.6.05h-3.8V42.93h3.03c.85 0 1.6.14 2.23.4s1.18.63 1.6 1.08.74.95.95 1.52c.2.57.32 1.16.32 1.76zm-4.87 4.12c1.12 0 1.92-.36 2.4-1.07s.75-1.74.75-3.1c0-.4-.05-.82-.15-1.23-.1-.4-.3-.78-.58-1.12s-.68-.6-1.17-.8-1.13-.3-1.92-.3H17v7.62h1.63zm14.85-3.9c0 .86-.1 1.6-.33 2.26-.2.64-.5 1.18-.88 1.6-.38.44-.83.76-1.33.98s-1.06.33-1.66.33-1.16-.1-1.66-.33-.95-.54-1.33-.97c-.4-.43-.7-.97-.9-1.6-.2-.66-.33-1.4-.33-2.26s.1-1.57.32-2.2c.2-.65.5-1.2.9-1.6.36-.45.8-.77 1.3-1s1.07-.33 1.67-.33 1.15.1 1.66.34.95.55 1.32.98c.38.43.68.97.9 1.6.2.65.32 1.4.32 2.24zm-4.24 3.83c.33 0 .65-.07.96-.2.3-.13.58-.35.82-.65.24-.3.43-.7.57-1.18s.2-1.08.2-1.8c0-.67-.08-1.25-.2-1.73-.15-.48-.33-.87-.56-1.18s-.5-.55-.8-.7c-.3-.13-.6-.2-.93-.2-.33 0-.65.07-.96.2-.3.12-.58.34-.82.64s-.43.7-.56 1.2-.2 1.06-.22 1.76c0 .7.08 1.28.2 1.76.14.5.32.88.56 1.2s.5.52.8.66c.3.14.6.2.94.2zm13.36.25c-.37.36-.8.63-1.26.82-.48.18-1 .27-1.54.27-.6 0-1.15-.1-1.66-.33s-.94-.54-1.32-.97c-.38-.43-.68-.97-.9-1.6-.2-.66-.3-1.4-.3-2.26s.1-1.57.3-2.2c.22-.65.52-1.2.9-1.6.38-.45.82-.77 1.33-1 .5-.22 1.06-.33 1.65-.33.55 0 1.06.1 1.54.27.47.2.9.46 1.27.82l-1.12 1.02c-.23-.27-.48-.46-.76-.58-.27-.13-.55-.2-.86-.2-.33 0-.65.08-.96.2-.3.13-.58.35-.82.65-.24.3-.43.7-.57 1.2s-.2 1.06-.22 1.76c0 .7.08 1.3.22 1.77.12.5.3.88.53 1.2s.5.5.8.66c.3.14.6.2.93.2s.64-.05.93-.17.53-.3.76-.57l1.14 1z" fill="#FFF"/></svg>