<?xml version="1.0" encoding="iso-8859-1"?>
<!-- Generator: Adobe Illustrator 19.1.0, SVG Export Plug-In . SVG Version: 6.00 Build 0)  -->
<svg version="1.1" id="Capa_1" xmlns="http://www.w3.org/2000/svg" xmlns:xlink="http://www.w3.org/1999/xlink" x="0px" y="0px"
	 viewBox="0 0 272.067 272.067" style="enable-background:new 0 0 272.067 272.067;" xml:space="preserve">
<g>
	<path d="M46.752,194.765l68.812,68.825l0.289,0.283c1.253,1.215,2.635,2.333,4.107,3.31c0.617,0.411,1.253,0.752,1.896,1.08
		l0.88,0.463c0.713,0.405,1.433,0.803,2.249,1.144c0.803,0.328,1.62,0.566,2.436,0.791l0.951,0.289
		c0.668,0.219,1.33,0.424,1.999,0.553c1.896,0.379,3.805,0.566,5.707,0.566c1.87-0.013,3.76-0.199,5.604-0.566
		c0.72-0.148,1.42-0.366,2.108-0.591l0.816-0.238c0.842-0.238,1.677-0.476,2.474-0.81c0.79-0.328,1.536-0.733,2.275-1.15
		l0.906-0.488c0.63-0.315,1.247-0.649,1.8-1.015c1.234-0.829,2.436-1.767,3.605-2.847l69.641-69.59
		c5.463-5.463,8.471-12.719,8.471-20.45c0-7.719-3.008-14.987-8.471-20.45c-5.463-5.463-12.719-8.471-20.45-8.471
		s-14.987,3.014-20.45,8.471l-19.454,19.454V28.921C164.954,12.969,151.979,0,136.034,0c-15.951,0-28.921,12.969-28.921,28.921
		v144.392l-19.454-19.441c-5.463-5.463-12.719-8.471-20.45-8.471c-7.719,0-14.987,3.014-20.45,8.471
		c-5.463,5.45-8.471,12.719-8.471,20.45C38.275,182.034,41.289,189.302,46.752,194.765z M55.84,162.952
		c3.04-3.04,7.07-4.704,11.363-4.704s8.336,1.671,11.363,4.704l41.395,41.395V28.921c0-8.863,7.204-16.067,16.067-16.067
		c8.863,0,16.067,7.204,16.067,16.067v175.433l41.395-41.395c3.04-3.04,7.07-4.704,11.363-4.704c4.293,0,8.323,1.671,11.363,4.704
		c6.08,6.073,6.067,16.646,0,22.719l-68.452,68.446l-0.508,0.476c-0.707,0.688-1.472,1.33-2.796,2.147l-1.472,0.791
		c-0.27,0.148-0.527,0.315-0.835,0.437c-0.308,0.122-0.63,0.199-0.945,0.289l-2.044,0.623c-1.035,0.206-2.095,0.321-3.143,0.321
		c-1.015,0-2.076-0.116-3.599-0.463l-1.581-0.476c-0.341-0.09-0.675-0.167-0.938-0.276c-0.289-0.129-0.553-0.289-0.829-0.437
		l-1.973-1.054c-0.868-0.585-1.684-1.24-2.449-2.005L55.84,185.678C49.766,179.598,49.779,169.019,55.84,162.952z"/>
</g>
<g>
</g>
<g>
</g>
<g>
</g>
<g>
</g>
<g>
</g>
<g>
</g>
<g>
</g>
<g>
</g>
<g>
</g>
<g>
</g>
<g>
</g>
<g>
</g>
<g>
</g>
<g>
</g>
<g>
</g>
</svg>
