<?xml version="1.0" encoding="iso-8859-1"?>
<!-- Generator: Adobe Illustrator 19.0.0, SVG Export Plug-In . SVG Version: 6.00 Build 0)  -->
<svg version="1.1" id="Layer_1" xmlns="http://www.w3.org/2000/svg" xmlns:xlink="http://www.w3.org/1999/xlink" x="0px" y="0px"
	 viewBox="0 0 286.054 286.054" style="enable-background:new 0 0 286.054 286.054;" xml:space="preserve">
<g>
	<path style="fill:#b7bdc1;" d="M277.115,160.906h-107.27c-4.943,0-8.939,3.996-8.939,8.939v107.27c0,4.943,3.996,8.939,8.939,8.939
		h107.27c4.943,0,8.939-3.996,8.939-8.939v-107.27C286.054,164.902,282.058,160.906,277.115,160.906z M277.115,0.001h-107.27
		c-4.943,0-8.939,4.005-8.939,8.939v107.27c0,4.943,3.996,8.939,8.939,8.939h107.27c4.943,0,8.939-3.996,8.939-8.939V8.94
		C286.054,4.006,282.058,0.001,277.115,0.001z M116.209,0.001H8.939C4.005,0.001,0,4.006,0,8.94v107.27
		c0,4.943,4.005,8.939,8.939,8.939h107.27c4.934,0,8.939-3.996,8.939-8.939V8.94C125.149,4.006,121.144,0.001,116.209,0.001z
		 M116.209,160.906H8.939c-4.934,0-8.939,3.996-8.939,8.939v107.27c0,4.943,4.005,8.939,8.939,8.939h107.27
		c4.934,0,8.939-3.996,8.939-8.939v-107.27C125.149,164.902,121.144,160.906,116.209,160.906z"/>
</g>
<g>
</g>
<g>
</g>
<g>
</g>
<g>
</g>
<g>
</g>
<g>
</g>
<g>
</g>
<g>
</g>
<g>
</g>
<g>
</g>
<g>
</g>
<g>
</g>
<g>
</g>
<g>
</g>
<g>
</g>
</svg>
