<svg xmlns="http://www.w3.org/2000/svg" viewBox="0 0 56 56"><path d="M36.98 0H7.96C7.16 0 6.5.66 6.5 1.93V55c0 .34.66 1 1.46 1h40.08c.8 0 1.46-.66 1.46-1V12.98c0-.7-.1-.92-.26-1.1L37.6.27C37.45.1 37.23 0 37 0z" fill="#E9E9E0"/><path fill="#D9D7CA" d="M37.5.15V12h11.85"/><path d="M48.04 56H7.96c-.8 0-1.46-.66-1.46-1.46V39h43v15.54c0 .8-.66 1.46-1.46 1.46z" fill="#71C285"/><g fill="#FFF"><path d="M20.45 53H18.8V42.92h1.65V53zM28.67 50.24c0 .36-.07.72-.23 1.06s-.36.64-.63.9-.6.47-1 .62c-.4.16-.86.23-1.37.23-.22 0-.44 0-.68-.03s-.47-.06-.7-.12c-.24-.05-.46-.13-.68-.22s-.4-.2-.55-.35l.28-1.18c.13.08.3.15.5.22l.6.2c.2.05.42.1.63.13.2.04.4.06.58.06.57 0 1-.13 1.3-.4s.44-.64.44-1.15c0-.3-.1-.56-.32-.78-.2-.22-.47-.42-.78-.6s-.66-.35-1.02-.53c-.37-.2-.7-.4-1.03-.64-.33-.24-.6-.53-.8-.85-.2-.32-.3-.73-.3-1.22 0-.45.07-.85.23-1.2s.4-.63.66-.87.6-.42.97-.55.75-.2 1.16-.2c.42 0 .85.05 1.28.13.43.07.78.2 1.04.37-.05.12-.1.25-.2.4l-.2.4-.16.3-.08.13-.18-.1s-.17-.1-.3-.14c-.12-.05-.3-.08-.5-.1-.2-.02-.48 0-.8.02-.2 0-.36.07-.53.15s-.32.2-.45.33-.23.27-.3.43c-.07.16-.1.32-.1.46 0 .37.1.66.3.88.22.23.48.42.8.6.3.16.63.33 1 .48.36.16.7.36 1.02.6s.57.5.78.84c.2.34.32.78.32 1.32zM38.57 47.9c0 .86-.1 1.6-.32 2.26s-.5 1.18-.9 1.6-.8.76-1.32.98-1.06.33-1.66.33-1.15-.1-1.66-.33-.94-.54-1.32-.97-.67-.97-.9-1.6-.3-1.4-.3-2.26.1-1.58.3-2.22.53-1.18.9-1.6.82-.76 1.33-.98 1.07-.34 1.67-.34 1.16.1 1.66.34.95.54 1.33.97.67.97.9 1.6.3 1.4.3 2.24zm-4.24 3.83c.34 0 .66-.07.96-.2s.57-.35.8-.65.44-.7.58-1.18.2-1.08.22-1.8c0-.67-.08-1.25-.2-1.73s-.33-.87-.56-1.18-.5-.54-.8-.68-.6-.2-.93-.2c-.33 0-.65.06-.95.18s-.58.35-.82.65-.43.7-.57 1.2-.2 1.06-.22 1.76c0 .7.08 1.28.2 1.76s.33.88.56 1.2.5.52.8.66.6.2.93.2z"/></g><circle cx="27.5" cy="21" r="12" fill="#C8BDB8"/><circle cx="27.5" cy="21" r="3" fill="#E9E9E0"/><path d="M25.38 18.88c.13-.13.28-.25.42-.35l-2.36-8.8c-1.6.57-3.13 1.5-4.42 2.78-1.3 1.3-2.22 2.83-2.8 4.44l8.8 2.36c.1-.14.23-.3.36-.42zM30.07 23.5l2.27 8.47c1.32-.58 2.56-1.4 3.64-2.48 1.26-1.27 2.17-2.73 2.75-4.3l-8.2-2.18c-.28-.08-.54.18-.46.47z" fill="#D3CCC9"/></svg>