<svg xmlns="http://www.w3.org/2000/svg" viewBox="0 0 56 56"><path d="M36.98 0H7.96C7.16 0 6.5.66 6.5 1.93V55c0 .34.66 1 1.46 1h40.08c.8 0 1.46-.66 1.46-1V12.98c0-.7-.1-.92-.26-1.1L37.6.27C37.45.1 37.23 0 37 0z" fill="#E9E9E0"/><path fill="#D9D7CA" d="M37.5.15V12h11.85"/><circle cx="18.93" cy="14.43" r="4.57" fill="#F3D55B"/><path fill="#26B99A" d="M6.5 39h43V28l-10-9.5L29 30l-5.48-5.48"/><path d="M48.04 56H7.96c-.8 0-1.46-.66-1.46-1.46V39h43v15.54c0 .8-.66 1.46-1.46 1.46z" fill="#14A085"/><g fill="#FFF"><path d="M21.43 42.65v7.85c0 .47-.1.87-.26 1.2-.18.32-.4.58-.7.77-.3.2-.63.34-1 .4-.38.1-.77.13-1.17.13-.2 0-.44-.02-.7-.06-.28-.04-.56-.1-.84-.2s-.57-.18-.83-.3c-.26-.1-.5-.22-.67-.36l.7-1.1c.1.06.22.13.4.2l.54.2c.2.05.4.1.63.14s.42.07.61.07c.5 0 .87-.1 1.16-.3s.44-.5.46-.94v-7.7h1.67zM25.5 52.93h-1.63V42.85h2.9c.43 0 .85.07 1.27.2.42.15.8.35 1.13.62.33.28.6.6.8 1s.3.82.3 1.3c0 .5-.07.97-.25 1.4-.17.4-.4.75-.72 1.04-.3.3-.68.5-1.12.66s-.92.23-1.45.23H25.5v3.63zm0-8.83v4h1.52c.2 0 .4-.04.6-.1.2-.08.37-.2.53-.35s.3-.37.4-.65c.1-.27.15-.62.15-1.03 0-.16-.02-.35-.07-.56-.05-.2-.14-.4-.28-.6-.14-.2-.34-.37-.6-.5-.25-.13-.6-.2-1-.2H25.5zM39.5 47.74v3.9c-.2.26-.44.47-.7.64s-.54.3-.82.42-.6.18-.9.23c-.3.05-.6.07-.9.07-.6 0-1.16-.1-1.66-.33s-.95-.54-1.33-.97c-.4-.43-.68-.97-.9-1.6-.2-.66-.32-1.4-.32-2.25s.1-1.6.32-2.24c.22-.63.5-1.17.9-1.6.37-.42.8-.75 1.32-.97.5-.23 1.07-.34 1.66-.34.54 0 1.05.08 1.53.26.48.2.9.46 1.28.83l-1.14 1c-.2-.27-.47-.46-.75-.58-.3-.1-.58-.17-.88-.17-.34 0-.66.06-.97.2-.3.1-.58.33-.82.64-.24.3-.43.68-.56 1.17s-.2 1.07-.22 1.78c0 .68.08 1.27.2 1.77.14.5.32.9.56 1.23s.5.56.8.7c.3.17.6.25.94.25.1 0 .23 0 .4-.03.17 0 .34-.03.5-.06.17-.03.34-.07.5-.12.15-.06.26-.14.33-.24v-2.48h-1.7v-1.12h3.33z"/></g></svg>