<svg xmlns="http://www.w3.org/2000/svg" viewBox="0 0 56 56"><path d="M36.98 0H7.96C7.16 0 6.5.66 6.5 1.93V55c0 .34.66 1 1.46 1h40.08c.8 0 1.46-.66 1.46-1V12.98c0-.7-.1-.92-.26-1.1L37.6.27C37.45.1 37.23 0 37 0z" fill="#E9E9E0"/><path fill="#D9D7CA" d="M37.5.15V12h11.85"/><path d="M48.04 56H7.96c-.8 0-1.46-.66-1.46-1.46V39h43v15.54c0 .8-.66 1.46-1.46 1.46z" fill="#EEAF4B"/><g fill="#FFF"><path d="M26.02 42.72v7.85c0 .47-.1.87-.26 1.2-.17.32-.4.58-.7.77-.3.2-.62.34-1 .4s-.77.13-1.17.13c-.2 0-.45-.02-.7-.06s-.56-.1-.85-.18-.56-.2-.83-.3c-.26-.1-.48-.23-.67-.37l.7-1.1c.1.06.22.13.4.2l.55.18c.2.06.4.12.62.16s.43.06.62.06c.48 0 .87-.1 1.15-.28s.43-.5.45-.95v-7.7h1.67zM34.18 50.24c0 .36-.07.72-.22 1.06s-.36.64-.64.9-.6.47-1 .62c-.4.16-.87.23-1.38.23-.22 0-.44 0-.67-.03s-.47-.06-.7-.12c-.25-.05-.47-.13-.7-.22s-.38-.2-.54-.35l.3-1.18c.1.08.28.15.47.22l.6.2c.22.05.43.1.64.13.2.04.4.06.6.06.54 0 .97-.13 1.27-.4s.45-.64.45-1.15c0-.3-.1-.56-.3-.78-.22-.22-.5-.42-.8-.6s-.65-.35-1.02-.53c-.36-.2-.7-.4-1.02-.64-.3-.24-.58-.53-.8-.85-.2-.32-.3-.73-.3-1.22 0-.45.08-.85.25-1.2s.38-.63.66-.87.6-.42.98-.55.76-.2 1.17-.2c.42 0 .84.05 1.27.13.43.07.77.2 1.04.37l-.2.4-.2.4c-.06.1-.12.2-.16.3l-.08.13-.2-.1s-.16-.1-.28-.14c-.13-.05-.3-.08-.5-.1-.22-.02-.5 0-.82.02-.18 0-.35.07-.52.15s-.3.2-.43.33-.23.27-.3.43c-.08.16-.1.32-.1.46 0 .37.1.66.3.88.2.23.47.42.78.6.3.16.65.33 1 .48.38.16.72.36 1.03.6s.58.5.8.84c.2.34.3.78.3 1.32z"/></g><g fill="#EEAF4B"><path d="M19.5 19v-4c0-.55.45-1 1-1s1-.45 1-1-.45-1-1-1c-1.65 0-3 1.35-3 3v4c0 1.1-.9 2-2 2-.55 0-1 .45-1 1s.45 1 1 1c1.1 0 2 .9 2 2v4c0 1.65 1.35 3 3 3 .55 0 1-.45 1-1s-.45-1-1-1-1-.45-1-1v-4c0-1.2-.54-2.27-1.38-3 .84-.73 1.38-1.8 1.38-3z"/><circle cx="27.5" cy="18.5" r="1.5"/><path d="M39.5 21c-1.1 0-2-.9-2-2v-4c0-1.65-1.35-3-3-3-.55 0-1 .45-1 1s.45 1 1 1 1 .45 1 1v4c0 1.2.54 2.27 1.38 3-.84.73-1.38 1.8-1.38 3v4c0 .55-.45 1-1 1s-1 .45-1 1 .45 1 1 1c1.65 0 3-1.35 3-3v-4c0-1.1.9-2 2-2 .55 0 1-.45 1-1s-.45-1-1-1zM27.5 24c-.55 0-1 .45-1 1v3c0 .55.45 1 1 1s1-.45 1-1v-3c0-.55-.45-1-1-1z"/></g></svg>