<svg xmlns="http://www.w3.org/2000/svg" viewBox="0 0 56 56"><path d="M36.98 0H7.96C7.16 0 6.5.66 6.5 1.93V55c0 .34.66 1 1.46 1h40.08c.8 0 1.46-.66 1.46-1V12.98c0-.7-.1-.92-.26-1.1L37.6.27C37.45.1 37.23 0 37 0z" fill="#E9E9E0"/><path fill="#D9D7CA" d="M37.5.15V12h11.85"/><path d="M48.04 56H7.96c-.8 0-1.46-.66-1.46-1.46V39h43v15.54c0 .8-.66 1.46-1.46 1.46z" fill="#9777A8"/><g fill="#FFF"><path d="M17.02 42.72v7.85c0 .47-.1.87-.26 1.2s-.4.58-.7.77-.62.34-1 .4c-.38.1-.77.13-1.17.13-.2 0-.45-.02-.7-.06s-.56-.1-.85-.18-.56-.2-.82-.3-.5-.23-.67-.37l.7-1.1c.08.06.2.13.38.2l.56.18.63.16s.42.06.6.06c.5 0 .88-.1 1.16-.28s.43-.5.45-.95v-7.7h1.67zM25.18 50.24c0 .36-.07.72-.22 1.06s-.36.64-.64.9-.6.47-1 .62-.87.23-1.38.23c-.22 0-.44 0-.67-.03s-.47-.06-.7-.12c-.24-.05-.47-.13-.68-.22s-.4-.2-.57-.35l.3-1.18c.12.08.28.15.47.22l.6.2s.43.1.64.13.4.06.6.06c.54 0 .97-.13 1.27-.4s.45-.64.45-1.15c0-.3-.1-.56-.3-.78s-.5-.42-.8-.6-.65-.35-1.02-.53-.7-.4-1.02-.64-.58-.53-.8-.85-.3-.73-.3-1.22c0-.45.08-.85.25-1.2s.38-.63.66-.87.6-.42.98-.55.76-.2 1.17-.2c.42 0 .84.05 1.27.13s.77.2 1.04.37l-.2.4-.2.4-.16.3-.08.13-.2-.1s-.15-.1-.28-.14-.3-.08-.5-.1-.5 0-.82.02c-.18 0-.35.07-.52.15s-.3.2-.43.33-.23.27-.3.43-.1.32-.1.46c0 .37.1.66.3.88s.47.42.78.6.65.33 1 .48.72.36 1.03.6.58.5.8.84.3.78.3 1.32zM35.08 47.9c0 .86-.1 1.6-.32 2.26s-.5 1.18-.9 1.6-.8.76-1.3.98-1.07.33-1.68.33-1.15-.1-1.66-.33-.94-.54-1.32-.97-.68-.97-.9-1.6-.3-1.4-.3-2.26.1-1.58.3-2.22.52-1.18.9-1.6.82-.76 1.32-.98 1.06-.34 1.66-.34 1.16.1 1.67.34.94.54 1.32.97.68.97.9 1.6.3 1.4.3 2.24zm-4.24 3.83c.34 0 .66-.07.97-.2s.6-.35.83-.65.43-.7.56-1.18.2-1.08.2-1.8c0-.67-.07-1.25-.2-1.73s-.3-.87-.55-1.18-.5-.54-.8-.68-.6-.2-.92-.2c-.34 0-.66.06-.97.18s-.58.35-.82.65-.43.7-.57 1.2c-.13.47-.2 1.06-.2 1.76s.06 1.28.2 1.76.3.88.54 1.2.5.52.8.66.62.2.94.2zM44.68 42.92V53H43l-3.94-6.95V53H37.4V42.92h1.66L43 49.87v-6.95h1.68z"/></g><g fill="#9777A8"><path d="M19.5 19v-4c0-.55.45-1 1-1s1-.45 1-1-.45-1-1-1c-1.65 0-3 1.35-3 3v4c0 1.1-.9 2-2 2-.55 0-1 .45-1 1s.45 1 1 1c1.1 0 2 .9 2 2v4c0 1.65 1.35 3 3 3 .55 0 1-.45 1-1s-.45-1-1-1-1-.45-1-1v-4c0-1.2-.54-2.27-1.38-3 .84-.73 1.38-1.8 1.38-3z"/><circle cx="27.5" cy="18.5" r="1.5"/><path d="M39.5 21c-1.1 0-2-.9-2-2v-4c0-1.65-1.35-3-3-3-.55 0-1 .45-1 1s.45 1 1 1 1 .45 1 1v4c0 1.2.54 2.27 1.38 3-.84.73-1.38 1.8-1.38 3v4c0 .55-.45 1-1 1s-1 .45-1 1 .45 1 1 1c1.65 0 3-1.35 3-3v-4c0-1.1.9-2 2-2 .55 0 1-.45 1-1s-.45-1-1-1zM27.5 24c-.55 0-1 .45-1 1v3c0 .55.45 1 1 1s1-.45 1-1v-3c0-.55-.45-1-1-1z"/></g></svg>