<svg xmlns="http://www.w3.org/2000/svg" viewBox="0 0 56 56"><path d="M36.98 0H7.96C7.16 0 6.5.66 6.5 1.93V55c0 .34.66 1 1.46 1h40.08c.8 0 1.46-.66 1.46-1V12.98c0-.7-.1-.92-.26-1.1L37.6.28C37.45.1 37.23 0 37 0z" fill="#E9E9E0"/><path fill="#D9D7CA" d="M37.5.15V12h11.85"/><path d="M48.04 56H7.96c-.8 0-1.46-.66-1.46-1.46V39h43v15.54c0 .8-.66 1.46-1.46 1.46z" fill="#7D6599"/><path d="M35.67 15c-.57-.8-1.3-1.56-2.3-2.36C29.44 9.5 28.6 6.36 28.5 5.9V5c0-.55-.45-1-1-1s-1 .45-1 1v18.4h-3.7c-3.9 0-6.3 1.97-6.3 5.13 0 3.46 2.24 5.7 5.7 5.7 3.48 0 6.3-2.82 6.3-6.3V16.48l.3.24c.34.35.86.73 1.52 1.22 2.32 1.7 6.2 4.56 5.22 7.8-.03.1-.04.18-.04.28 0 .43.28.83.7.96.1.03.2.04.3.04.43 0 .83-.28.96-.7 1.62-5.4-.43-9.4-1.8-11.3zM26.5 27.93c0 2.37-1.93 4.3-4.3 4.3-2.35 0-3.7-1.36-3.7-3.7 0-2.6 2.33-3.13 4.3-3.13h3.7v2.54zm5-11.63c-.57-.4-1.06-.78-1.37-1.07L28.5 13.9v-3.5c.83 1.2 2 2.5 3.6 3.8.87.7 1.48 1.3 1.94 1.95.72 1 1.43 2.34 1.8 3.98-1.34-1.6-3.1-2.9-4.34-3.82z" fill="#C8BDB8"/><path d="M22.4 42.92h1.67V53H22.4v-6.93l-2.26 5.6H18.7l-2.28-5.6V53h-1.66V42.92h1.66l3 6.9 2.98-6.9zM28.2 53h-1.63V42.92h2.9c.43 0 .85.07 1.27.2s.8.35 1.13.62.6.6.8 1 .3.82.3 1.3c0 .5-.07.97-.25 1.4s-.4.75-.72 1.03-.7.5-1.12.66-.92.23-1.45.23H28.2V53zm0-8.83v4h1.5c.22 0 .4-.04.6-.1s.4-.2.55-.35.3-.37.4-.65.15-.62.15-1.03c0-.16-.03-.35-.07-.57s-.14-.42-.28-.6-.34-.37-.6-.5-.6-.2-1-.2H28.2zm10.42 3.53c.2.02.42.1.64.2s.44.27.63.47.33.44.46.73.2.6.2 1c0 .44-.08.84-.2 1.17s-.3.6-.5.83-.44.4-.7.52-.48.23-.72.3-.45.1-.65.12l-.47.03c-.76 0-1.37-.06-1.8-.16s-.76-.2-.93-.3l.38-1.2.23.17.33.16s.33.1.58.12.6.05 1 .05c.65 0 1.1-.18 1.43-.52s.46-.77.46-1.3c0-.5-.15-.9-.43-1.24s-.7-.5-1.24-.5h-1.4v-1.1h.93l.6-.03s.4-.04.6-.13.32-.24.44-.46.17-.52.17-.93c0-.17-.02-.34-.04-.52s-.1-.35-.23-.5-.3-.3-.54-.4-.56-.13-.98-.13-.76.05-1 .13l-.58.18-.47-1.22.8-.2s.8-.1 1.4-.1c.44 0 .84.05 1.23.15s.72.28 1 .5.52.52.7.88.24.77.24 1.26c0 .27-.05.53-.15.76s-.23.44-.38.6-.33.32-.52.44-.37.2-.53.23z" fill="#FFF"/></svg>