<svg xmlns="http://www.w3.org/2000/svg" viewBox="0 0 56 56"><path d="M36.98 0H7.96C7.16 0 6.5.66 6.5 1.93V55c0 .34.66 1 1.46 1h40.08c.8 0 1.46-.66 1.46-1V12.98c0-.7-.1-.92-.26-1.1L37.6.27C37.45.1 37.23 0 37 0z" fill="#E9E9E0"/><path fill="#D9D7CA" d="M37.5.15V12h11.85"/><path d="M19.5 33.32c-.33 0-.67-.1-.95-.32-1.04-.78-1.18-1.65-1.12-2.24.18-1.63 2.2-3.34 6-5.07 1.5-3.3 2.92-7.37 3.78-10.76-1-2.17-1.96-5-1.26-6.65.25-.58.56-1.03 1.14-1.22.23-.08.8-.17 1-.17.52 0 .96.66 1.28 1.06.3.37.96 1.17-.38 6.8 1.35 2.78 3.26 5.62 5.1 7.56 1.3-.24 2.43-.36 3.35-.36 1.56 0 2.5.37 2.9 1.12.32.62.2 1.35-.4 2.16-.55.78-1.32 1.2-2.2 1.2-1.23 0-2.64-.78-4.22-2.3-2.83.6-6.14 1.66-8.82 2.83-.83 1.77-1.64 3.2-2.38 4.25-1.03 1.43-1.9 2.1-2.8 2.1zm2.68-5.12c-2.14 1.2-3 2.2-3.08 2.74 0 .1-.03.34.44.7.14-.05 1.02-.45 2.64-3.44zm13.63-4.44c.83.62 1.03.94 1.56.94.23 0 .9 0 1.2-.44.16-.2.22-.34.24-.42-.12-.06-.3-.2-1.18-.2-.5 0-1.13.03-1.8.12zm-7.46-6.6c-.7 2.5-1.66 5.16-2.67 7.58 2.1-.8 4.36-1.52 6.5-2.02-1.36-1.57-2.7-3.53-3.83-5.55zm-.6-8.45c-.1.05-1.33 1.77.1 3.23.94-2.12-.06-3.23-.1-3.22zM48.04 56H7.96c-.8 0-1.46-.66-1.46-1.46V39h43v15.54c0 .8-.66 1.46-1.46 1.46z" fill="#CC4B4C"/><g fill="#FFF"><path d="M17.4 53h-1.66V42.92h2.9c.43 0 .85.07 1.27.2.43.15.8.35 1.14.62.33.28.6.6.8 1s.32.82.32 1.3c0 .5-.1.97-.26 1.4-.18.4-.42.75-.73 1.03-.3.3-.68.5-1.12.66s-.92.23-1.45.23h-1.22V53zm0-8.83v4h1.5c.2 0 .4-.04.58-.1.2-.08.38-.2.54-.35.17-.15.3-.37.4-.65.1-.28.15-.62.15-1.03 0-.16-.02-.35-.07-.57-.04-.2-.14-.42-.28-.6-.14-.2-.34-.37-.6-.5-.25-.14-.6-.2-1-.2h-1.23zM32.22 47.68c0 .83-.1 1.54-.27 2.13s-.4 1.1-.67 1.5-.6.7-.93.92-.67.4-1 .5c-.3.13-.6.2-.86.23-.28.03-.47.05-.6.05h-3.82V42.92h3.04c.85 0 1.6.14 2.23.4s1.18.63 1.6 1.08.74.95.95 1.52c.2.57.32 1.16.32 1.76zm-4.87 4.12c1.1 0 1.92-.36 2.4-1.07s.75-1.74.75-3.1c0-.4-.05-.82-.15-1.23-.1-.4-.3-.78-.6-1.12s-.66-.6-1.15-.8-1.13-.3-1.92-.3h-.96v7.62h1.63zM36.27 44.17v3.17h4.2v1.12h-4.2V53H34.6V42.92h6.3v1.25h-4.63z"/></g></svg>