<svg xmlns="http://www.w3.org/2000/svg" viewBox="0 0 56 56"><path d="M36.98 0H7.96C7.16 0 6.5.66 6.5 1.93V55c0 .34.66 1 1.46 1h40.08c.8 0 1.46-.66 1.46-1V12.98c0-.7-.1-.92-.26-1.1L37.6.27C37.45.1 37.23 0 37 0z" fill="#E9E9E0"/><path fill="#D9D7CA" d="M37.5.15V12h11.85"/><path d="M48.04 56H7.96c-.8 0-1.46-.66-1.46-1.46V39h43v15.54c0 .8-.66 1.46-1.46 1.46z" fill="#95A5A5"/><g fill="#FFF"><path d="M21.87 42.92v1.12h-3V53H17.2v-8.96h-3v-1.12h7.67zM28.44 48.1L31 53h-1.9l-1.6-3.8h-.14L25.64 53h-1.9l2.56-4.9-2.72-5.18h1.87l1.78 4.1h.13l1.93-4.1h1.87l-2.73 5.18zM40.53 42.92v1.12h-3V53h-1.66v-8.96h-3v-1.12h7.66z"/></g><path d="M18.5 13h-6c-.55 0-1-.45-1-1s.45-1 1-1h6c.55 0 1 .45 1 1s-.45 1-1 1zM21.5 18h-9c-.55 0-1-.45-1-1s.45-1 1-1h9c.55 0 1 .45 1 1s-.45 1-1 1zM25.5 18c-.26 0-.52-.1-.7-.3-.2-.18-.3-.43-.3-.7s.1-.52.3-.7c.36-.38 1.04-.38 1.4 0 .2.18.3.44.3.7 0 .26-.1.52-.3.7-.18.2-.44.3-.7.3zM37.5 18h-8c-.55 0-1-.45-1-1s.45-1 1-1h8c.55 0 1 .45 1 1s-.45 1-1 1zM12.5 33c-.26 0-.52-.1-.7-.3-.2-.18-.3-.44-.3-.7 0-.26.1-.52.3-.7.36-.38 1.04-.38 1.4 0 .2.18.3.44.3.7 0 .26-.1.52-.3.7-.18.2-.44.3-.7.3zM24.5 33h-8c-.55 0-1-.45-1-1s.45-1 1-1h8c.55 0 1 .45 1 1s-.45 1-1 1zM43.5 18h-2c-.55 0-1-.45-1-1s.45-1 1-1h2c.55 0 1 .45 1 1s-.45 1-1 1zM34.5 23h-22c-.55 0-1-.45-1-1s.45-1 1-1h22c.55 0 1 .45 1 1s-.45 1-1 1zM43.5 23h-6c-.55 0-1-.45-1-1s.45-1 1-1h6c.55 0 1 .45 1 1s-.45 1-1 1zM16.5 28h-4c-.55 0-1-.45-1-1s.45-1 1-1h4c.55 0 1 .45 1 1s-.45 1-1 1zM30.5 28h-10c-.55 0-1-.45-1-1s.45-1 1-1h10c.55 0 1 .45 1 1s-.45 1-1 1zM43.5 28h-9c-.55 0-1-.45-1-1s.45-1 1-1h9c.55 0 1 .45 1 1s-.45 1-1 1z" fill="#C8BDB8"/></svg>