<svg xmlns="http://www.w3.org/2000/svg" viewBox="0 0 56 56"><path d="M36.98 0H7.96C7.16 0 6.5.66 6.5 1.93V55c0 .34.66 1 1.46 1h40.08c.8 0 1.46-.66 1.46-1V12.98c0-.7-.1-.92-.26-1.1L37.6.27C37.45.1 37.23 0 37 0z" fill="#E9E9E0"/><path d="M48.04 56H7.96c-.8 0-1.46-.66-1.46-1.46V39h43v15.54c0 .8-.66 1.46-1.46 1.46z" fill="#659C35"/><path fill="#D9D7CA" d="M37.5.15V12h11.85"/><g fill="#FFF"><path d="M17.4 53h-1.66V42.92h2.9c.43 0 .85.07 1.27.2.43.15.8.35 1.14.62.33.28.6.6.8 1s.32.82.32 1.3c0 .5-.1.97-.26 1.4-.18.4-.42.75-.73 1.03-.3.3-.68.5-1.12.66s-.92.23-1.45.23h-1.22V53zm0-8.83v4h1.5c.2 0 .4-.04.58-.1.2-.08.38-.2.54-.35.17-.15.3-.37.4-.65.1-.28.15-.62.15-1.03 0-.16-.02-.35-.07-.57-.04-.2-.14-.42-.28-.6-.14-.2-.34-.37-.6-.5-.25-.14-.6-.2-1-.2h-1.23zM31.32 42.92V53h-1.67l-3.95-6.95V53h-1.67V42.92h1.67l3.95 6.95v-6.95h1.67zM41.16 47.8v3.9c-.2.27-.44.48-.7.65s-.54.3-.82.42-.6.18-.9.23c-.3.05-.6.07-.9.07-.6 0-1.16-.1-1.66-.33s-.95-.54-1.33-.97c-.38-.43-.67-.97-.9-1.6-.2-.66-.3-1.4-.3-2.26s.1-1.58.3-2.22c.23-.64.52-1.18.9-1.6.38-.44.82-.76 1.33-.98.5-.23 1.07-.34 1.66-.34.54 0 1.05.1 1.53.27.47.2.9.46 1.27.82l-1.14 1.02c-.2-.27-.47-.46-.75-.58-.28-.13-.57-.2-.87-.2-.34 0-.66.08-.97.2-.3.13-.57.35-.8.65-.25.3-.44.7-.57 1.2s-.2 1.06-.22 1.76c.02.7.1 1.3.22 1.8.13.5.3.9.55 1.22s.5.56.8.7c.3.17.6.24.93.24.1 0 .23 0 .4-.02.17 0 .34-.03.5-.07.17-.03.34-.07.5-.13.15-.05.26-.13.33-.23v-2.48h-1.7V47.8h3.33z"/></g><circle cx="18.93" cy="14.43" r="4.57" fill="#F3D55B"/><path fill="#88C057" d="M6.5 39h43V28l-10-9.5L29 30l-5.48-5.48"/></svg>