<svg xmlns="http://www.w3.org/2000/svg" viewBox="0 0 56 56"><path d="M36.98 0H7.96C7.16 0 6.5.66 6.5 1.93V55c0 .34.66 1 1.46 1h40.08c.8 0 1.46-.66 1.46-1V12.98c0-.7-.1-.92-.26-1.1L37.6.27C37.45.1 37.23 0 37 0z" fill="#E9E9E0"/><path fill="#D9D7CA" d="M37.5.15V12h11.85"/><path d="M48.04 56H7.96c-.8 0-1.46-.66-1.46-1.46V39h43v15.54c0 .8-.66 1.46-1.46 1.46z" fill="#F6712E"/><g fill="#FFF"><path d="M17.58 53h-1.64V42.92h2.9c.43 0 .85.07 1.27.2.43.15.8.35 1.14.62.33.28.6.6.8 1s.3.82.3 1.3c0 .5-.07.97-.25 1.4-.18.4-.42.75-.73 1.03-.3.3-.7.5-1.12.66s-.93.23-1.45.23h-1.22V53zm0-8.83v4h1.5c.2 0 .4-.04.6-.1.2-.08.38-.2.54-.35s.3-.37.4-.65c.1-.28.15-.62.15-1.03 0-.16-.03-.35-.07-.57-.05-.2-.14-.42-.28-.6-.14-.2-.34-.37-.6-.5-.25-.14-.6-.2-1-.2h-1.24zM25.85 53H24.2V42.92h2.9c.44 0 .86.07 1.28.2.42.15.8.35 1.13.62.34.28.6.6.82 1s.3.82.3 1.3c0 .5-.08.97-.26 1.4-.17.4-.4.75-.72 1.03-.3.3-.7.5-1.12.66s-.92.23-1.45.23h-1.22V53zm0-8.83v4h1.5c.2 0 .4-.04.6-.1.2-.08.38-.2.54-.35s.3-.37.4-.65c.1-.28.14-.62.14-1.03 0-.16-.02-.35-.07-.57-.05-.2-.14-.42-.28-.6-.15-.2-.35-.37-.6-.5-.26-.14-.6-.2-1.02-.2h-1.23zM39.6 42.92v1.12h-3V53h-1.66v-8.96h-3v-1.12h7.67z"/></g><path d="M39.5 30h-24V14h24v16zm-22-2h20V16h-20v12z" fill="#C8BDB8"/><path d="M20.5 35c-.18 0-.35-.05-.52-.14-.47-.3-.62-.9-.34-1.38l3-5c.3-.47.9-.62 1.37-.34.5.3.64.9.36 1.37l-3 5c-.2.33-.52.5-.86.5zM34.5 35c-.34 0-.67-.17-.86-.48l-3-5c-.28-.48-.13-1.1.35-1.38.46-.28 1.07-.13 1.36.35l3 5c.28.46.13 1.07-.34 1.36-.17.1-.34.14-.52.14zM27.5 16c-.55 0-1-.45-1-1v-3c0-.55.45-1 1-1s1 .45 1 1v3c0 .55-.45 1-1 1z" fill="#C8BDB8"/><path fill="#D3CCC9" d="M17.5 16h20v12h-20z"/></svg>