<svg xmlns="http://www.w3.org/2000/svg" viewBox="0 0 56 56"><path d="M36.98 0H7.96C7.16 0 6.5.66 6.5 1.93V55c0 .34.66 1 1.46 1h40.08c.8 0 1.46-.66 1.46-1V12.98c0-.7-.1-.92-.26-1.1L37.6.27C37.45.1 37.23 0 37 0z" fill="#E9E9E0"/><path d="M48.04 56H7.96c-.8 0-1.46-.66-1.46-1.46V39h43v15.54c0 .8-.66 1.46-1.46 1.46z" fill="#5889C4"/><g fill="#FFF"><path d="M17.4 53h-1.66V42.92h2.9c.43 0 .85.07 1.27.2.43.15.8.35 1.14.62.33.28.6.6.8 1s.32.82.32 1.3c0 .5-.1.97-.26 1.4-.18.4-.42.75-.73 1.03-.3.3-.68.5-1.12.66s-.92.23-1.45.23h-1.22V53zm0-8.83v4h1.5c.2 0 .4-.04.58-.1.2-.08.38-.2.54-.35.17-.15.3-.37.4-.65.1-.28.15-.62.15-1.03 0-.16-.02-.35-.07-.57-.04-.2-.14-.42-.28-.6-.14-.2-.34-.37-.6-.5-.25-.14-.6-.2-1-.2h-1.23zM29.73 50.24c0 .36-.07.72-.23 1.06s-.36.64-.63.9-.6.47-1 .62c-.4.16-.87.23-1.38.23-.23 0-.45 0-.7-.03s-.45-.06-.7-.12c-.23-.05-.46-.13-.67-.22-.2-.1-.4-.2-.55-.35l.28-1.18c.13.08.3.15.5.22l.6.2c.2.05.42.1.63.13.2.04.4.06.57.06.56 0 1-.13 1.28-.4.3-.25.45-.64.45-1.15 0-.3-.1-.56-.32-.78-.2-.22-.47-.42-.78-.6s-.66-.35-1.02-.53c-.37-.2-.7-.4-1.03-.64-.32-.24-.58-.53-.8-.85-.2-.32-.3-.73-.3-1.22 0-.45.08-.85.24-1.2s.38-.63.65-.87c.28-.24.6-.42.98-.55s.75-.2 1.16-.2c.4 0 .84.05 1.27.13.42.07.77.2 1.03.37-.05.12-.1.25-.2.4l-.2.4-.16.3-.08.13-.18-.1s-.17-.1-.3-.14c-.12-.05-.3-.08-.5-.1-.2-.02-.48 0-.8.02-.2 0-.36.07-.53.15s-.3.2-.44.33c-.12.13-.22.27-.3.43-.06.16-.1.32-.1.46 0 .37.1.66.32.88.2.23.47.42.78.6.3.16.64.33 1 .48.37.16.7.36 1.03.6s.57.5.78.84c.23.34.33.78.33 1.32zM39.63 47.68c0 .83-.1 1.54-.27 2.13s-.4 1.1-.68 1.5-.58.7-.92.92-.67.4-1 .5c-.3.13-.6.2-.86.23-.27.03-.46.05-.6.05h-3.8V42.92h3.03c.85 0 1.6.14 2.23.4s1.18.63 1.6 1.08.75.95.96 1.52c.2.57.3 1.16.3 1.76zm-4.87 4.12c1.1 0 1.92-.36 2.4-1.07s.75-1.74.75-3.1c0-.4-.04-.82-.14-1.23-.1-.4-.3-.78-.58-1.12s-.68-.6-1.17-.8-1.12-.3-1.9-.3h-.97v7.62h1.63z"/></g><path d="M38.9 11.16c-.47-.3-1.1-.17-1.4.3-1.42 2.2-3.97 5.16-5.18 6.37l-2.8 2.8-2.82-2.84 2.8-2.8c1.76-1.77 6.26-5.44 8.1-6.1l.12-.02c.52-.12.82-.62.73-1.15-.1-.52-.6-.88-1.14-.8l-.27.05c-2.44.82-7.46 5.1-8.96 6.6l-7.18 7.2-.3-.02c-2.97 0-5.46 2.12-5.98 5l-.1.1-.03.52c-.04.95-.3 4.06-2.35 4.55-.52.13-.86.62-.8 1.15l.17.92h7l2.1-.03c3.35 0 6.1-2.74 6.1-6.1 0-.2-.02-.4-.04-.58l7.05-7.06c1.3-1.3 3.93-4.35 5.45-6.7.3-.46.18-1.07-.3-1.38zm-18.3 19.8h-3.73V31h-1.65c.9-1.34 1.16-3.04 1.25-4.04l.08-.5c.2-2.12 1.96-3.7 4.06-3.7.13 0 .24.02.36.03h.17c1.04.15 1.95.67 2.6 1.42l.17.2.23.36.14.26c.06.12.12.25.17.4l.08.23c.04.15.1.3.12.45v.03c.04.23.08.47.08.7 0 2.28-1.85 4.12-4.1 4.12zm4.92-7.7l-.02-.04c-.6-.8-1.4-1.46-2.34-1.9l2.13-2.12 2.8 2.83-2.06 2.07c-.15-.3-.32-.58-.52-.85z" fill="#C8BDB8"/><path fill="#D9D7CA" d="M37.5.15V12h11.85"/></svg>