<?xml version="1.0" encoding="iso-8859-1"?>
<!-- Generator: Adobe Illustrator 19.0.0, SVG Export Plug-In . SVG Version: 6.00 Build 0)  -->
<svg version="1.1" id="Layer_1" xmlns="http://www.w3.org/2000/svg" xmlns:xlink="http://www.w3.org/1999/xlink" x="0px" y="0px"
	 viewBox="0 0 512 512" style="enable-background:new 0 0 512 512;" xml:space="preserve">
<path style="fill:#314E55;" d="M511.867,234.008c-0.061-0.969-0.25-1.901-0.57-2.818c-0.119-0.341-0.205-0.677-0.357-1.003
	c-0.514-1.104-1.162-2.151-2.053-3.046c-0.006-0.006-0.01-0.014-0.01-0.014L448,166.25v-59.583c0-0.232-0.118-0.44-0.133-0.672
	c-0.06-0.941-0.242-1.846-0.546-2.741c-0.117-0.342-0.206-0.676-0.357-1.005c-0.519-1.133-1.173-2.21-2.088-3.124l-96-96
	c-0.918-0.918-1.997-1.573-3.133-2.094c-0.32-0.146-0.643-0.233-0.976-0.348c-0.911-0.314-1.837-0.499-2.798-0.557
	C341.75,0.112,341.553,0,341.333,0H74.667C68.776,0,64,4.776,64,10.667V166.25L3.128,227.122c0,0-0.009,0.013-0.016,0.019
	c-0.891,0.894-1.539,1.941-2.053,3.046c-0.152,0.326-0.238,0.661-0.357,1.003c-0.32,0.917-0.509,1.849-0.57,2.818
	C0.118,234.238,0,234.432,0,234.667v202.667C0,443.224,4.776,448,10.667,448H64v53.333C64,507.224,68.776,512,74.667,512h362.667
	c5.891,0,10.667-4.776,10.667-10.667V448h53.333c5.891,0,10.667-4.776,10.667-10.667V234.667
	C512,234.432,511.882,234.238,511.867,234.008z"/>
<polygon style="fill:#EAEAEA;" points="475.583,224 448,224 448,196.417 "/>
<polygon style="fill:#D8D8D8;" points="411.583,96 352,96 352,36.417 "/>
<g>
	<path style="fill:#EAEAEA;" d="M85.333,21.333h245.333v85.333c0,5.891,4.776,10.667,10.667,10.667h85.333v53.333V224H85.333
		v-53.333V21.333z"/>
	<polygon style="fill:#EAEAEA;" points="64,196.417 64,224 36.417,224 	"/>
	<rect x="85.333" y="448" style="fill:#EAEAEA;" width="341.333" height="42.667"/>
</g>
<polygon style="fill:#81A4E3;" points="490.667,426.667 21.333,426.667 21.333,245.333 74.667,245.333 437.333,245.333 
	490.667,245.333 "/>
<path style="fill:#314E55;" d="M374.864,342.858c2.357-1.631,4.504-3.776,6.438-6.431c1.934-2.656,3.536-5.888,4.805-9.707
	c1.27-3.809,1.904-8.181,1.904-13.142c0-6.41-0.907-11.904-2.72-16.501c-1.814-4.596-4.322-8.405-7.525-11.423
	c-3.203-3.019-7.042-5.227-11.515-6.624c-4.473-1.387-9.369-2.081-14.687-2.081h-36.63v128.384h21.034V350.57h12.149l19.947,54.763
	h22.848l-23.029-59.115C370.18,345.611,372.506,344.501,374.864,342.858z"/>
<path style="fill:#81A4E3;" d="M361.445,329.621c-3.445,3.328-7.827,4.992-13.146,4.992h-12.331v-39.531h12.331
	c2.176,0,4.352,0.299,6.528,0.907c2.176,0.608,4.141,1.631,5.893,3.082c1.753,1.451,3.173,3.445,4.262,5.984
	c1.088,2.539,1.631,5.738,1.631,9.611C366.613,321.313,364.891,326.303,361.445,329.621z"/>
<polygon style="fill:#314E55;" points="242.4,276.949 210.486,405.333 232.245,405.333 238.773,378.133 272.501,378.133 
	278.848,405.333 301.515,405.333 270.144,276.949 "/>
<polygon style="fill:#81A4E3;" points="241.494,361.089 255.456,297.44 256.182,297.44 269.781,361.089 "/>
<path style="fill:#314E55;" d="M190.085,342.858c2.357-1.631,4.504-3.776,6.438-6.431c1.934-2.656,3.536-5.888,4.805-9.707
	c1.27-3.809,1.904-8.181,1.904-13.142c0-6.41-0.907-11.904-2.72-16.501c-1.814-4.596-4.322-8.405-7.525-11.423
	c-3.203-3.019-7.042-5.227-11.515-6.624c-4.473-1.387-9.369-2.081-14.688-2.081h-36.629v128.384h21.034V350.57h12.149l19.947,54.763
	h22.847l-23.029-59.115C185.4,345.611,187.728,344.501,190.085,342.858z"/>
<path style="fill:#81A4E3;" d="M176.667,329.621c-3.445,3.328-7.827,4.992-13.146,4.992H151.19v-39.531h12.331
	c2.176,0,4.352,0.299,6.528,0.907c2.176,0.608,4.141,1.631,5.893,3.082c1.753,1.451,3.173,3.445,4.262,5.984
	c1.088,2.539,1.631,5.738,1.631,9.611C181.835,321.313,180.112,326.303,176.667,329.621z"/>
<g>
</g>
<g>
</g>
<g>
</g>
<g>
</g>
<g>
</g>
<g>
</g>
<g>
</g>
<g>
</g>
<g>
</g>
<g>
</g>
<g>
</g>
<g>
</g>
<g>
</g>
<g>
</g>
<g>
</g>
</svg>
