<svg xmlns="http://www.w3.org/2000/svg" viewBox="0 0 56 56"><path d="M36.98 0H7.96C7.16 0 6.5.66 6.5 1.93V55c0 .34.66 1 1.46 1h40.08c.8 0 1.46-.66 1.46-1V12.98c0-.7-.1-.92-.26-1.1L37.6.27C37.45.1 37.23 0 37 0z" fill="#E9E9E0"/><path fill="#D9D7CA" d="M37.5.15V12h11.85"/><path d="M48.04 56H7.96c-.8 0-1.46-.66-1.46-1.46V39h43v15.54c0 .8-.66 1.46-1.46 1.46z" fill="#90BAE1"/><g fill="#FFF"><path d="M20.83 53l-1.9-3.65h-1.55V53h-1.64V42.92h2.9c.43 0 .85.07 1.27.2.42.15.8.35 1.13.62s.6.6.8 1 .3.82.3 1.3c0 .73-.16 1.35-.5 1.86-.33.5-.8.9-1.36 1.14l2.3 3.96h-1.74zm-3.46-4.84h1.5c.2 0 .4-.03.6-.1.2-.07.38-.18.54-.34s.3-.37.4-.65c.1-.28.16-.62.16-1.03 0-.16-.03-.35-.07-.57-.06-.2-.15-.42-.3-.6s-.33-.37-.6-.5c-.24-.14-.58-.2-1-.2h-1.23v4zM31.9 42.92v1.12h-3.02V53h-1.65v-8.96h-3v-1.12h7.66zM35.55 44.17v3.17h4.22v1.12h-4.22V53H33.9V42.92h6.3v1.25h-4.65z"/></g><g fill="#C8BDB8"><path d="M12.5 13h6c.55 0 1-.45 1-1s-.45-1-1-1h-6c-.55 0-1 .45-1 1s.45 1 1 1zM12.5 18h9c.55 0 1-.45 1-1s-.45-1-1-1h-9c-.55 0-1 .45-1 1s.45 1 1 1zM25.5 18c.26 0 .52-.1.7-.3.2-.18.3-.44.3-.7 0-.26-.1-.52-.3-.7-.37-.38-1.03-.38-1.4 0-.2.18-.3.43-.3.7s.1.52.3.7c.18.2.44.3.7.3zM29.5 18h8c.55 0 1-.45 1-1s-.45-1-1-1h-8c-.55 0-1 .45-1 1s.45 1 1 1zM11.8 31.3c-.2.18-.3.43-.3.7s.1.52.3.7c.18.2.43.3.7.3.27 0 .52-.1.7-.3.2-.18.3-.44.3-.7 0-.26-.1-.52-.3-.7-.36-.38-1.04-.38-1.4 0zM24.5 31h-8c-.55 0-1 .45-1 1s.45 1 1 1h8c.55 0 1-.45 1-1s-.45-1-1-1zM41.5 18h2c.55 0 1-.45 1-1s-.45-1-1-1h-2c-.55 0-1 .45-1 1s.45 1 1 1zM12.5 23h22c.55 0 1-.45 1-1s-.45-1-1-1h-22c-.55 0-1 .45-1 1s.45 1 1 1zM43.5 21h-6c-.55 0-1 .45-1 1s.45 1 1 1h6c.55 0 1-.45 1-1s-.45-1-1-1zM12.5 28h4c.55 0 1-.45 1-1s-.45-1-1-1h-4c-.55 0-1 .45-1 1s.45 1 1 1zM30.5 26h-10c-.55 0-1 .45-1 1s.45 1 1 1h10c.55 0 1-.45 1-1s-.45-1-1-1zM43.5 26h-9c-.55 0-1 .45-1 1s.45 1 1 1h9c.55 0 1-.45 1-1s-.45-1-1-1z"/></g></svg>