<svg xmlns="http://www.w3.org/2000/svg" width="438.53" height="438.53" viewBox="0 0 438.533 438.533"><path fill="#fff" d="M432.82 121.05c-3.8-9.13-8.37-16.37-13.7-21.7L339.16 19.4c-5.32-5.3-12.56-9.88-21.7-13.7-9.12-3.8-17.5-5.7-25.1-5.7H27.4C19.8 0 13.34 2.66 8 8 2.67 13.3 0 19.8 0 27.4v383.73c0 7.6 2.67 14.08 8 19.4 5.33 5.34 11.8 8 19.4 8h383.73c7.62 0 14.1-2.66 19.4-8 5.34-5.3 8-11.8 8-19.4V146.18c0-7.62-1.9-16-5.7-25.13zm-250.1-75.37c0-2.48.9-4.6 2.72-6.43 1.8-1.8 3.95-2.7 6.42-2.7h54.82c2.47 0 4.6.9 6.42 2.7 1.8 1.82 2.7 3.95 2.7 6.43v91.36c0 2.48-.9 4.62-2.7 6.43-1.8 1.8-3.95 2.7-6.42 2.7h-54.82c-2.47 0-4.62-.9-6.42-2.7-1.8-1.82-2.72-3.95-2.72-6.43V45.68zm146.2 356.3H109.6V292.36h219.3V402zm73.08 0h-36.55V283.23c0-7.62-2.67-14.1-8-19.42-5.33-5.33-11.8-8-19.4-8H100.5c-7.62 0-14.1 2.67-19.42 8-5.33 5.33-8 11.8-8 19.42V402H36.55V36.53H73.1V155.3c0 7.63 2.65 14.1 7.98 19.43 5.33 5.32 11.8 8 19.42 8h164.45c7.6 0 14.1-2.68 19.4-8 5.34-5.33 8-11.8 8-19.42V36.55c2.86 0 6.57.95 11.14 2.86 4.56 1.9 7.8 3.8 9.7 5.7l80.23 80.23c1.9 1.9 3.8 5.2 5.7 9.85 1.92 4.67 2.87 8.33 2.87 11v255.8z"/></svg>