<svg xmlns="http://www.w3.org/2000/svg" viewBox="0 0 56 56"><path d="M36.98 0H7.96C7.16 0 6.5.66 6.5 1.93V55c0 .34.66 1 1.46 1h40.08c.8 0 1.46-.66 1.46-1V12.98c0-.7-.1-.92-.26-1.1L37.6.27C37.45.1 37.23 0 37 0z" fill="#E9E9E0"/><path fill="#D9D7CA" d="M37.5.15V12h11.85"/><path d="M48.04 56H7.96c-.8 0-1.46-.66-1.46-1.46V39h43v15.54c0 .8-.66 1.46-1.46 1.46z" fill="#E57E25"/><g fill="#FFF"><path d="M21.46 50.24c0 .36-.08.72-.23 1.06s-.36.64-.63.9-.6.47-1.02.62-.85.23-1.36.23c-.22 0-.45 0-.68-.03s-.47-.06-.7-.12-.47-.13-.68-.22-.4-.2-.55-.35l.3-1.18c.12.08.28.15.48.22l.6.2s.43.1.64.13.4.06.58.06c.56 0 1-.13 1.28-.4.3-.25.45-.64.45-1.15 0-.3-.1-.56-.32-.78s-.46-.42-.78-.6-.65-.35-1-.53-.72-.4-1.04-.64-.58-.53-.8-.85-.3-.73-.3-1.22c0-.45.08-.85.24-1.2s.4-.63.66-.87.6-.42.97-.55.76-.2 1.17-.2c.42 0 .85.05 1.27.13s.77.2 1.03.37c-.05.12-.1.25-.2.4s-.13.27-.2.4l-.16.3-.08.13-.2-.1s-.16-.1-.3-.14-.28-.08-.5-.1-.47 0-.8.02c-.18 0-.36.07-.52.15s-.3.2-.44.33-.23.27-.3.43-.1.32-.1.46c0 .37.1.66.3.88s.48.42.78.6.65.33 1.02.48.7.36 1.02.6.57.5.78.84.32.78.32 1.32zM25.86 53.05l-3.13-10.13h1.87l2.34 8.7 2.48-8.7h1.86l-3.3 10.13h-2.12zM40.67 47.8v3.9c-.2.27-.45.48-.7.65s-.54.3-.83.42-.58.18-.88.23-.6.07-.9.07c-.62 0-1.17-.1-1.67-.33s-.96-.54-1.34-.97-.68-.97-.9-1.6-.3-1.4-.3-2.26.1-1.58.3-2.22.52-1.18.9-1.6.82-.76 1.33-.98 1.05-.34 1.65-.34c.54 0 1.05.1 1.53.27s.9.46 1.27.82L39 44.87c-.2-.27-.46-.46-.74-.58s-.57-.2-.87-.2c-.35 0-.67.08-.98.2s-.58.35-.82.65-.43.7-.56 1.2-.2 1.06-.22 1.76c0 .7.08 1.3.2 1.8s.32.9.56 1.22.5.56.8.7.6.24.92.24c.1 0 .24 0 .4-.02l.5-.07s.34-.07.5-.13.27-.13.34-.23v-2.48h-1.7V47.8h3.33z"/></g><path d="M45.5 22v-6h-6v2h-6v-4h-10v4h-6v-2h-6v6h6v-2h3.55c-4.57 2.64-7.55 7.6-7.55 13 0 .55.45 1 1 1s1-.45 1-1c0-5.25 3.23-10 8-12v3h10v-3c4.77 2 8 6.75 8 12 0 .55.45 1 1 1s1-.45 1-1c0-5.4-2.98-10.36-7.55-13h3.55v2h6zm-30-2h-2v-2h2v2zm16 2h-6v-6h6v6zm10-4h2v2h-2v-2z" fill="#C8BDB8"/></svg>