<svg xmlns="http://www.w3.org/2000/svg" viewBox="0 0 56 56"><path d="M36.98 0H7.96C7.16 0 6.5.66 6.5 1.93V55c0 .34.66 1 1.46 1h40.08c.8 0 1.46-.66 1.46-1V12.98c0-.7-.1-.92-.26-1.1L37.6.27C37.45.1 37.23 0 37 0z" fill="#E9E9E0"/><path fill="#D9D7CA" d="M37.5.15V12h11.85"/><path d="M48.04 56H7.96c-.8 0-1.46-.66-1.46-1.46V39h43v15.54c0 .8-.66 1.46-1.46 1.46z" fill="#91CDA0"/><g fill="#FFF"><path d="M20.38 48.1l2.56 4.9h-1.9l-1.6-3.8h-.14L17.58 53h-1.9l2.55-4.9-2.72-5.18h1.9l1.76 4.1h.14l1.93-4.1h1.87l-2.72 5.18zM27.04 42.92v8.84h4.63V53h-6.3V42.92h1.67zM39.04 50.24c0 .36-.07.72-.23 1.06s-.35.64-.62.9-.6.47-1 .62c-.4.16-.87.23-1.38.23-.22 0-.44 0-.68-.03s-.46-.06-.7-.12c-.24-.05-.46-.13-.68-.22-.2-.1-.4-.2-.55-.35l.28-1.18c.12.08.3.15.48.22l.6.2c.22.05.43.1.64.13.2.04.4.06.6.06.54 0 .97-.13 1.26-.4.3-.25.45-.64.45-1.15 0-.3-.1-.56-.3-.78-.22-.22-.48-.42-.8-.6s-.65-.35-1-.53c-.38-.2-.72-.4-1.04-.64-.32-.24-.58-.53-.8-.85-.2-.32-.3-.73-.3-1.22 0-.45.08-.85.24-1.2s.4-.63.67-.87.6-.42.97-.55.76-.2 1.17-.2c.42 0 .85.05 1.28.13.42.07.77.2 1.04.37l-.2.4-.2.4c-.06.1-.12.2-.16.3l-.1.13-.17-.1s-.18-.1-.3-.14c-.13-.05-.3-.08-.5-.1-.22-.02-.5 0-.82.02-.18 0-.35.07-.52.15s-.3.2-.44.33c-.12.13-.22.27-.3.43-.07.16-.1.32-.1.46 0 .37.1.66.3.88.22.23.48.42.8.6.3.16.63.33 1 .48.36.16.7.36 1.02.6s.57.5.78.84c.22.34.32.78.32 1.32z"/></g><path d="M23.5 16v-4h-12v22h33V16h-21zm-10-2h8v2h-8v-2zm0 4h8v2h-8v-2zm0 4h8v2h-8v-2zm0 4h8v2h-8v-2zm8 6h-8v-2h8v2zm21 0h-19v-2h19v2zm0-4h-19v-2h19v2zm0-4h-19v-2h19v2zm-19-4v-2h19v2h-19z" fill="#C8BDB8"/></svg>