<svg xmlns="http://www.w3.org/2000/svg" viewBox="0 0 56 56"><path d="M36.98 0H7.96C7.16 0 6.5.66 6.5 1.93V55c0 .34.66 1 1.46 1h40.08c.8 0 1.46-.66 1.46-1V12.98c0-.7-.1-.92-.26-1.1L37.6.27C37.45.1 37.23 0 37 0z" fill="#E9E9E0"/><path fill="#D9D7CA" d="M37.5.15V12h11.85"/><path d="M48.04 56H7.96c-.8 0-1.46-.66-1.46-1.46V39h43v15.54c0 .8-.66 1.46-1.46 1.46z" fill="#F29C1F"/><g fill="#FFF"><path d="M19.38 48.1l2.56 4.9h-1.9l-1.6-3.8h-.14L16.58 53h-1.9l2.55-4.9-2.72-5.18h1.9l1.76 4.1h.14l1.93-4.1h1.87l-2.72 5.18zM32 42.92h1.67V53H32v-6.93l-2.26 5.6H28.3L26 46.07V53h-1.66V42.92h1.66l3 6.9 2.98-6.9zM37.86 42.92v8.84h4.64V53h-6.3V42.92h1.66z"/></g><path d="M15.5 24c-.26 0-.5-.1-.7-.3-.4-.38-.4-1.02 0-1.4l6-6c.38-.4 1.02-.4 1.4 0s.4 1.02 0 1.4l-6 6c-.2.2-.44.3-.7.3z" fill="#F29C1F"/><path d="M21.5 30c-.26 0-.5-.1-.7-.3l-6-6c-.4-.38-.4-1.02 0-1.4s1.02-.4 1.4 0l6 6c.4.38.4 1.02 0 1.4-.2.2-.44.3-.7.3zM33.5 30c-.26 0-.5-.1-.7-.3-.4-.38-.4-1.02 0-1.4l6-6c.38-.4 1.02-.4 1.4 0s.4 1.02 0 1.4l-6 6c-.2.2-.44.3-.7.3z" fill="#F29C1F"/><path d="M39.5 24c-.26 0-.5-.1-.7-.3l-6-6c-.4-.38-.4-1.02 0-1.4s1.02-.4 1.4 0l6 6c.4.38.4 1.02 0 1.4-.2.2-.44.3-.7.3zM24.5 32c-.1 0-.22-.02-.33-.06-.52-.18-.8-.75-.6-1.27l6-17c.17-.52.74-.8 1.26-.6.52.17.8.74.6 1.26l-6 17c-.13.4-.52.67-.93.67z" fill="#F29C1F"/></svg>